# xmcd
#
# Track frame offsets:
#	150
#	11073
#	22794
#	33696
#	47397
#	58452
#	69807
#	81378
#	92802
#	104787
#	117723
#	129966
#	141982
#	154092
#	166158
#	180835
#	194463
#	207860
#	219170
#	231647
#	245502
#	257758
#	271368
#	284304
#	298736
#	312224
#	324838
#
# Disc length: 4503 seconds
# Revision: 0
# Processed by: cddbd v1.5.2PL0 Copyright (c) Steve Scherf et al.
# Submitted via: dBpowerAMP V12.0
#
DISCID=8e11951b
DTITLE=Johnny "Guitar" Watson - Gangster Of Love - The Very Best Of Johnny "Guitar" Watson
DYEAR=1953
DGENRE=Rhythm and Blues
TTITLE0=No I Can't
TTITLE1=Motor Head Baby
TTITLE2=Highway 60
TTITLE3=Sad Fool
TTITLE4=I Got Eyes
TTITLE5=What's Goin' On
TTITLE6=Walkin' To My Baby
TTITLE7=Thinking
TTITLE8=Space Guitar
TTITLE9=Half Pint-Of-Whiskey
TTITLE10=Gettin' Drunk
TTITLE11=You Can't Take It With You
TTITLE12=Embraceable You
TTITLE13=Posin'
TTITLE14=Cuttin' In
TTITLE15=The Nearness Of You
TTITLE16=Broke And Lonely
TTITLE17=What You Do To Me
TTITLE18=I Just Wants Me Some Love
TTITLE19=Sweet Lovin' Mama
TTITLE20=Cold Cold Heart
TTITLE21=I Say I Love You
TTITLE22=You Better Love Me
TTITLE23=That's The Chance You've Got To Take
TTITLE24=In The Evenin'
TTITLE25=Those Lonely Lonely Nights
TTITLE26=Gangster Of Love
EXTD=
EXTT0=
EXTT1=
EXTT2=
EXTT3=
EXTT4=
EXTT5=
EXTT6=
EXTT7=
EXTT8=
EXTT9=
EXTT10=
EXTT11=
EXTT12=
EXTT13=
EXTT14=
EXTT15=
EXTT16=
EXTT17=
EXTT18=
EXTT19=
EXTT20=
EXTT21=
EXTT22=
EXTT23=
EXTT24=
EXTT25=
EXTT26=
PLAYORDER=
